<mxfile host="www.draw.io" modified="2020-02-06T12:49:10.023Z" agent="Mozilla/5.0 (Windows NT 10.0; Win64; x64) AppleWebKit/537.36 (KHTML, like Gecko) Chrome/80.0.3987.87 Safari/537.36" etag="LE8YhJH2o4MJQmfwJjEm" version="12.6.5" type="github">
  <diagram id="C5RBs43oDa-KdzZeNtuy" name="Page-1">
    <mxGraphModel dx="1422" dy="794" grid="1" gridSize="10" guides="1" tooltips="1" connect="1" arrows="1" fold="1" page="1" pageScale="1" pageWidth="827" pageHeight="1169" math="0" shadow="0">
      <root>
        <mxCell id="WIyWlLk6GJQsqaUBKTNV-0"/>
        <mxCell id="WIyWlLk6GJQsqaUBKTNV-1" parent="WIyWlLk6GJQsqaUBKTNV-0"/>
        <mxCell id="ZBCarf4nbqw0AknmFumi-13" style="edgeStyle=orthogonalEdgeStyle;rounded=0;orthogonalLoop=1;jettySize=auto;html=1;exitX=1;exitY=0.5;exitDx=0;exitDy=0;entryX=0;entryY=0.5;entryDx=0;entryDy=0;endArrow=none;endFill=0;" parent="WIyWlLk6GJQsqaUBKTNV-1" source="ZBCarf4nbqw0AknmFumi-3" target="ZBCarf4nbqw0AknmFumi-5" edge="1">
          <mxGeometry relative="1" as="geometry"/>
        </mxCell>
        <mxCell id="ZBCarf4nbqw0AknmFumi-3" value="User" style="rounded=0;whiteSpace=wrap;html=1;" parent="WIyWlLk6GJQsqaUBKTNV-1" vertex="1">
          <mxGeometry x="50" y="80" width="120" height="60" as="geometry"/>
        </mxCell>
        <mxCell id="ZBCarf4nbqw0AknmFumi-18" value="" style="edgeStyle=orthogonalEdgeStyle;rounded=0;orthogonalLoop=1;jettySize=auto;html=1;endArrow=none;endFill=0;" parent="WIyWlLk6GJQsqaUBKTNV-1" source="ZBCarf4nbqw0AknmFumi-24" target="ZBCarf4nbqw0AknmFumi-17" edge="1">
          <mxGeometry relative="1" as="geometry">
            <Array as="points">
              <mxPoint x="490" y="170"/>
              <mxPoint x="490" y="170"/>
            </Array>
          </mxGeometry>
        </mxCell>
        <mxCell id="QiQay81E_IuYFBqlehbm-4" style="edgeStyle=orthogonalEdgeStyle;rounded=0;orthogonalLoop=1;jettySize=auto;html=1;exitX=1;exitY=0.5;exitDx=0;exitDy=0;entryX=0;entryY=0.5;entryDx=0;entryDy=0;endArrow=none;endFill=0;" edge="1" parent="WIyWlLk6GJQsqaUBKTNV-1" source="ZBCarf4nbqw0AknmFumi-4" target="QiQay81E_IuYFBqlehbm-3">
          <mxGeometry relative="1" as="geometry"/>
        </mxCell>
        <mxCell id="ZBCarf4nbqw0AknmFumi-4" value="Playlist" style="rounded=0;whiteSpace=wrap;html=1;" parent="WIyWlLk6GJQsqaUBKTNV-1" vertex="1">
          <mxGeometry x="430" y="80" width="120" height="60" as="geometry"/>
        </mxCell>
        <mxCell id="ZBCarf4nbqw0AknmFumi-5" value="Owns" style="rhombus;whiteSpace=wrap;html=1;" parent="WIyWlLk6GJQsqaUBKTNV-1" vertex="1">
          <mxGeometry x="230" y="70" width="140" height="80" as="geometry"/>
        </mxCell>
        <mxCell id="ZBCarf4nbqw0AknmFumi-15" style="edgeStyle=orthogonalEdgeStyle;rounded=0;orthogonalLoop=1;jettySize=auto;html=1;exitX=1;exitY=0.5;exitDx=0;exitDy=0;entryX=0;entryY=0.5;entryDx=0;entryDy=0;endArrow=none;endFill=0;" parent="WIyWlLk6GJQsqaUBKTNV-1" edge="1">
          <mxGeometry relative="1" as="geometry">
            <mxPoint x="370" y="109.5" as="sourcePoint"/>
            <mxPoint x="430" y="109.5" as="targetPoint"/>
          </mxGeometry>
        </mxCell>
        <mxCell id="ZBCarf4nbqw0AknmFumi-20" value="" style="edgeStyle=orthogonalEdgeStyle;rounded=0;orthogonalLoop=1;jettySize=auto;html=1;endArrow=none;endFill=0;" parent="WIyWlLk6GJQsqaUBKTNV-1" source="ZBCarf4nbqw0AknmFumi-17" edge="1">
          <mxGeometry relative="1" as="geometry">
            <mxPoint x="490" y="450" as="targetPoint"/>
          </mxGeometry>
        </mxCell>
        <mxCell id="ZBCarf4nbqw0AknmFumi-17" value="Contains" style="rhombus;whiteSpace=wrap;html=1;" parent="WIyWlLk6GJQsqaUBKTNV-1" vertex="1">
          <mxGeometry x="450" y="190" width="80" height="180" as="geometry"/>
        </mxCell>
        <mxCell id="ZBCarf4nbqw0AknmFumi-21" value="Artists" style="rounded=0;whiteSpace=wrap;html=1;" parent="WIyWlLk6GJQsqaUBKTNV-1" vertex="1">
          <mxGeometry x="430" y="450" width="120" height="60" as="geometry"/>
        </mxCell>
        <mxCell id="ZBCarf4nbqw0AknmFumi-22" value="1" style="text;html=1;strokeColor=none;fillColor=none;align=center;verticalAlign=middle;whiteSpace=wrap;rounded=0;" parent="WIyWlLk6GJQsqaUBKTNV-1" vertex="1">
          <mxGeometry x="170" y="80" width="40" height="20" as="geometry"/>
        </mxCell>
        <mxCell id="ZBCarf4nbqw0AknmFumi-23" value="N" style="text;html=1;strokeColor=none;fillColor=none;align=center;verticalAlign=middle;whiteSpace=wrap;rounded=0;" parent="WIyWlLk6GJQsqaUBKTNV-1" vertex="1">
          <mxGeometry x="390" y="80" width="40" height="20" as="geometry"/>
        </mxCell>
        <mxCell id="ZBCarf4nbqw0AknmFumi-24" value="R" style="text;html=1;strokeColor=none;fillColor=none;align=center;verticalAlign=middle;whiteSpace=wrap;rounded=0;" parent="WIyWlLk6GJQsqaUBKTNV-1" vertex="1">
          <mxGeometry x="490" y="140" width="40" height="20" as="geometry"/>
        </mxCell>
        <mxCell id="ZBCarf4nbqw0AknmFumi-25" value="" style="edgeStyle=orthogonalEdgeStyle;rounded=0;orthogonalLoop=1;jettySize=auto;html=1;endArrow=none;endFill=0;" parent="WIyWlLk6GJQsqaUBKTNV-1" source="ZBCarf4nbqw0AknmFumi-4" edge="1">
          <mxGeometry relative="1" as="geometry">
            <mxPoint x="490" y="140" as="sourcePoint"/>
            <mxPoint x="490" y="160" as="targetPoint"/>
          </mxGeometry>
        </mxCell>
        <mxCell id="ZBCarf4nbqw0AknmFumi-26" value="S" style="text;html=1;strokeColor=none;fillColor=none;align=center;verticalAlign=middle;whiteSpace=wrap;rounded=0;" parent="WIyWlLk6GJQsqaUBKTNV-1" vertex="1">
          <mxGeometry x="490" y="430" width="40" height="20" as="geometry"/>
        </mxCell>
        <mxCell id="ZBCarf4nbqw0AknmFumi-27" value="Ratings" style="rounded=0;whiteSpace=wrap;html=1;" parent="WIyWlLk6GJQsqaUBKTNV-1" vertex="1">
          <mxGeometry x="210" y="270" width="120" height="60" as="geometry"/>
        </mxCell>
        <mxCell id="ZBCarf4nbqw0AknmFumi-29" value="Submits" style="rhombus;whiteSpace=wrap;html=1;" parent="WIyWlLk6GJQsqaUBKTNV-1" vertex="1">
          <mxGeometry x="120" y="170" width="80" height="80" as="geometry"/>
        </mxCell>
        <mxCell id="ZBCarf4nbqw0AknmFumi-30" value="Are rated" style="rhombus;whiteSpace=wrap;html=1;" parent="WIyWlLk6GJQsqaUBKTNV-1" vertex="1">
          <mxGeometry x="350" y="180" width="80" height="80" as="geometry"/>
        </mxCell>
        <mxCell id="ZBCarf4nbqw0AknmFumi-31" value="" style="endArrow=none;html=1;exitX=0;exitY=0;exitDx=0;exitDy=0;" parent="WIyWlLk6GJQsqaUBKTNV-1" source="ZBCarf4nbqw0AknmFumi-29" edge="1">
          <mxGeometry width="50" height="50" relative="1" as="geometry">
            <mxPoint x="60" y="190" as="sourcePoint"/>
            <mxPoint x="110" y="140" as="targetPoint"/>
          </mxGeometry>
        </mxCell>
        <mxCell id="ZBCarf4nbqw0AknmFumi-33" value="" style="endArrow=none;html=1;exitX=0;exitY=0;exitDx=0;exitDy=0;" parent="WIyWlLk6GJQsqaUBKTNV-1" edge="1">
          <mxGeometry width="50" height="50" relative="1" as="geometry">
            <mxPoint x="210" y="280" as="sourcePoint"/>
            <mxPoint x="180" y="230" as="targetPoint"/>
          </mxGeometry>
        </mxCell>
        <mxCell id="ZBCarf4nbqw0AknmFumi-34" value="" style="endArrow=none;html=1;" parent="WIyWlLk6GJQsqaUBKTNV-1" source="ZBCarf4nbqw0AknmFumi-30" edge="1">
          <mxGeometry width="50" height="50" relative="1" as="geometry">
            <mxPoint x="460" y="190" as="sourcePoint"/>
            <mxPoint x="430" y="140" as="targetPoint"/>
          </mxGeometry>
        </mxCell>
        <mxCell id="ZBCarf4nbqw0AknmFumi-35" value="" style="endArrow=none;html=1;exitX=1;exitY=0;exitDx=0;exitDy=0;entryX=0;entryY=1;entryDx=0;entryDy=0;" parent="WIyWlLk6GJQsqaUBKTNV-1" source="ZBCarf4nbqw0AknmFumi-27" target="ZBCarf4nbqw0AknmFumi-30" edge="1">
          <mxGeometry width="50" height="50" relative="1" as="geometry">
            <mxPoint x="271.33333333333326" y="281.33333333333337" as="sourcePoint"/>
            <mxPoint x="330" y="230" as="targetPoint"/>
          </mxGeometry>
        </mxCell>
        <mxCell id="ZBCarf4nbqw0AknmFumi-36" value="1" style="text;html=1;strokeColor=none;fillColor=none;align=center;verticalAlign=middle;whiteSpace=wrap;rounded=0;" parent="WIyWlLk6GJQsqaUBKTNV-1" vertex="1">
          <mxGeometry x="60" y="140" width="40" height="20" as="geometry"/>
        </mxCell>
        <mxCell id="ZBCarf4nbqw0AknmFumi-37" value="J" style="text;html=1;strokeColor=none;fillColor=none;align=center;verticalAlign=middle;whiteSpace=wrap;rounded=0;" parent="WIyWlLk6GJQsqaUBKTNV-1" vertex="1">
          <mxGeometry x="170" y="280" width="40" height="20" as="geometry"/>
        </mxCell>
        <mxCell id="ZBCarf4nbqw0AknmFumi-38" value="K" style="text;html=1;strokeColor=none;fillColor=none;align=center;verticalAlign=middle;whiteSpace=wrap;rounded=0;" parent="WIyWlLk6GJQsqaUBKTNV-1" vertex="1">
          <mxGeometry x="330" y="270" width="40" height="20" as="geometry"/>
        </mxCell>
        <mxCell id="ZBCarf4nbqw0AknmFumi-39" value="1" style="text;html=1;strokeColor=none;fillColor=none;align=center;verticalAlign=middle;whiteSpace=wrap;rounded=0;" parent="WIyWlLk6GJQsqaUBKTNV-1" vertex="1">
          <mxGeometry x="420" y="140" width="40" height="20" as="geometry"/>
        </mxCell>
        <mxCell id="QiQay81E_IuYFBqlehbm-0" value="" style="endArrow=none;html=1;entryX=0.425;entryY=1.067;entryDx=0;entryDy=0;entryPerimeter=0;exitX=0.5;exitY=0;exitDx=0;exitDy=0;" edge="1" parent="WIyWlLk6GJQsqaUBKTNV-1" source="QiQay81E_IuYFBqlehbm-1" target="ZBCarf4nbqw0AknmFumi-3">
          <mxGeometry width="50" height="50" relative="1" as="geometry">
            <mxPoint x="100" y="430" as="sourcePoint"/>
            <mxPoint x="150" y="380" as="targetPoint"/>
          </mxGeometry>
        </mxCell>
        <mxCell id="QiQay81E_IuYFBqlehbm-1" value="Likes" style="rhombus;whiteSpace=wrap;html=1;" vertex="1" parent="WIyWlLk6GJQsqaUBKTNV-1">
          <mxGeometry x="30" y="440" width="150" height="80" as="geometry"/>
        </mxCell>
        <mxCell id="QiQay81E_IuYFBqlehbm-2" value="" style="endArrow=none;html=1;entryX=0;entryY=0.5;entryDx=0;entryDy=0;" edge="1" parent="WIyWlLk6GJQsqaUBKTNV-1" target="ZBCarf4nbqw0AknmFumi-21">
          <mxGeometry width="50" height="50" relative="1" as="geometry">
            <mxPoint x="180" y="480" as="sourcePoint"/>
            <mxPoint x="230" y="430" as="targetPoint"/>
          </mxGeometry>
        </mxCell>
        <mxCell id="QiQay81E_IuYFBqlehbm-6" style="edgeStyle=orthogonalEdgeStyle;rounded=0;orthogonalLoop=1;jettySize=auto;html=1;exitX=0.5;exitY=1;exitDx=0;exitDy=0;entryX=0.417;entryY=0.033;entryDx=0;entryDy=0;entryPerimeter=0;endArrow=none;endFill=0;" edge="1" parent="WIyWlLk6GJQsqaUBKTNV-1" source="QiQay81E_IuYFBqlehbm-3" target="QiQay81E_IuYFBqlehbm-5">
          <mxGeometry relative="1" as="geometry"/>
        </mxCell>
        <mxCell id="QiQay81E_IuYFBqlehbm-3" value="Is part of" style="rhombus;whiteSpace=wrap;html=1;" vertex="1" parent="WIyWlLk6GJQsqaUBKTNV-1">
          <mxGeometry x="600" y="70" width="80" height="80" as="geometry"/>
        </mxCell>
        <mxCell id="QiQay81E_IuYFBqlehbm-5" value="Tag (genre)" style="rounded=0;whiteSpace=wrap;html=1;" vertex="1" parent="WIyWlLk6GJQsqaUBKTNV-1">
          <mxGeometry x="590" y="220" width="120" height="60" as="geometry"/>
        </mxCell>
      </root>
    </mxGraphModel>
  </diagram>
</mxfile>
